<svg width="299" height="82" viewBox="0 0 299 82" fill="none" xmlns="http://www.w3.org/2000/svg">
<path d="M102.72 40.4148C102.72 37.8705 103.306 35.5881 104.478 33.5676C105.676 31.5471 107.285 29.9757 109.305 28.8532C111.351 27.7058 113.583 27.132 116.003 27.132C118.771 27.132 121.228 27.818 123.374 29.1899C125.544 30.5369 127.115 32.4576 128.088 34.952H122.962C122.288 33.5801 121.353 32.5574 120.156 31.8839C118.958 31.2104 117.574 30.8737 116.003 30.8737C114.281 30.8737 112.747 31.2603 111.4 32.0336C110.053 32.8068 108.993 33.9168 108.22 35.3636C107.472 36.8103 107.098 38.4941 107.098 40.4148C107.098 42.3355 107.472 44.0192 108.22 45.466C108.993 46.9127 110.053 48.0352 111.4 48.8334C112.747 49.6067 114.281 49.9933 116.003 49.9933C117.574 49.9933 118.958 49.6566 120.156 48.9831C121.353 48.3096 122.288 47.2869 122.962 45.9149H128.088C127.115 48.4094 125.544 50.3301 123.374 51.677C121.228 53.024 118.771 53.6975 116.003 53.6975C113.558 53.6975 111.326 53.1363 109.305 52.0138C107.285 50.8663 105.676 49.2824 104.478 47.2619C103.306 45.2415 102.72 42.9591 102.72 40.4148ZM137.346 25.7851V53.473H133.081V25.7851H137.346ZM151.889 53.8098C149.943 53.8098 148.185 53.3732 146.613 52.5002C145.042 51.6022 143.807 50.355 142.909 48.7586C142.011 47.1372 141.562 45.2664 141.562 43.1461C141.562 41.0508 142.023 39.1925 142.946 37.5711C143.869 35.9498 145.129 34.7026 146.725 33.8295C148.322 32.9565 150.105 32.52 152.076 32.52C154.046 32.52 155.83 32.9565 157.426 33.8295C159.023 34.7026 160.282 35.9498 161.205 37.5711C162.128 39.1925 162.59 41.0508 162.59 43.1461C162.59 45.2415 162.116 47.0998 161.168 48.7212C160.22 50.3425 158.923 51.6022 157.277 52.5002C155.655 53.3732 153.859 53.8098 151.889 53.8098ZM151.889 50.1056C152.986 50.1056 154.009 49.8436 154.957 49.3198C155.93 48.796 156.715 48.0102 157.314 46.9626C157.913 45.9149 158.212 44.6428 158.212 43.1461C158.212 41.6495 157.925 40.3898 157.352 39.3671C156.778 38.3195 156.017 37.5337 155.069 37.0099C154.121 36.4861 153.099 36.2242 152.001 36.2242C150.903 36.2242 149.881 36.4861 148.933 37.0099C148.01 37.5337 147.274 38.3195 146.725 39.3671C146.177 40.3898 145.902 41.6495 145.902 43.1461C145.902 45.3662 146.463 47.0873 147.586 48.3096C148.733 49.5069 150.168 50.1056 151.889 50.1056ZM185.477 32.8567V53.473H181.212V51.041C180.538 51.8891 179.653 52.5625 178.555 53.0614C177.482 53.5354 176.335 53.7723 175.113 53.7723C173.491 53.7723 172.032 53.4356 170.735 52.7621C169.463 52.0886 168.453 51.0908 167.704 49.7688C166.981 48.4468 166.619 46.8503 166.619 44.9795V32.8567H170.847V44.3435C170.847 46.1893 171.309 47.6111 172.232 48.6089C173.155 49.5817 174.414 50.0681 176.011 50.0681C177.607 50.0681 178.867 49.5817 179.79 48.6089C180.738 47.6111 181.212 46.1893 181.212 44.3435V32.8567H185.477ZM189.683 43.0713C189.683 41.001 190.107 39.1676 190.955 37.5711C191.828 35.9747 193.001 34.74 194.472 33.8669C195.969 32.969 197.628 32.52 199.449 32.52C200.796 32.52 202.118 32.8193 203.415 33.418C204.737 33.9917 205.785 34.7649 206.558 35.7378V25.7851H210.861V53.473H206.558V50.3675C205.859 51.3652 204.887 52.1884 203.639 52.8369C202.417 53.4855 201.008 53.8098 199.411 53.8098C197.615 53.8098 195.969 53.3608 194.472 52.4628C193.001 51.5398 191.828 50.2677 190.955 48.6463C190.107 47 189.683 45.1417 189.683 43.0713ZM206.558 43.1461C206.558 41.7243 206.259 40.4896 205.66 39.442C205.086 38.3943 204.325 37.5961 203.377 37.0473C202.43 36.4985 201.407 36.2242 200.309 36.2242C199.212 36.2242 198.189 36.4985 197.241 37.0473C196.293 37.5711 195.52 38.3569 194.921 39.4045C194.348 40.4272 194.061 41.6495 194.061 43.0713C194.061 44.4931 194.348 45.7403 194.921 46.8129C195.52 47.8855 196.293 48.7087 197.241 49.2824C198.214 49.8312 199.237 50.1056 200.309 50.1056C201.407 50.1056 202.43 49.8312 203.377 49.2824C204.325 48.7336 205.086 47.9354 205.66 46.8878C206.259 45.8152 206.558 44.568 206.558 43.1461ZM237.828 53.473H233.562L220.729 34.054V53.473H216.463V27.4314H220.729L233.562 46.8129V27.4314H237.828V53.473ZM262.324 42.6597C262.324 43.433 262.274 44.1314 262.175 44.755H246.422C246.547 46.4014 247.158 47.7234 248.256 48.7212C249.353 49.7189 250.7 50.2178 252.297 50.2178C254.592 50.2178 256.213 49.2575 257.161 47.3368H261.763C261.139 49.2325 260.004 50.7915 258.358 52.0138C256.737 53.2111 254.716 53.8098 252.297 53.8098C250.326 53.8098 248.555 53.3732 246.984 52.5002C245.437 51.6022 244.215 50.355 243.317 48.7586C242.444 47.1372 242.007 45.2664 242.007 43.1461C242.007 41.0259 242.431 39.1676 243.279 37.5711C244.152 35.9498 245.362 34.7026 246.909 33.8295C248.48 32.9565 250.276 32.52 252.297 32.52C254.242 32.52 255.976 32.944 257.498 33.7921C259.019 34.6402 260.204 35.8375 261.052 37.3841C261.9 38.9057 262.324 40.6642 262.324 42.6597ZM257.872 41.3128C257.847 39.7413 257.286 38.4816 256.188 37.5337C255.09 36.5859 253.731 36.1119 252.11 36.1119C250.638 36.1119 249.378 36.5859 248.331 37.5337C247.283 38.4567 246.659 39.7163 246.46 41.3128H257.872ZM274.005 53.8098C272.384 53.8098 270.925 53.5229 269.627 52.9492C268.355 52.3505 267.345 51.5523 266.597 50.5545C265.848 49.5318 265.449 48.3969 265.399 47.1497H269.815C269.889 48.0227 270.301 48.7586 271.049 49.3572C271.823 49.9309 272.783 50.2178 273.93 50.2178C275.128 50.2178 276.051 49.9933 276.699 49.5443C277.373 49.0704 277.709 48.4717 277.709 47.7483C277.709 46.9751 277.335 46.4014 276.587 46.0272C275.863 45.653 274.704 45.2415 273.107 44.7925C271.561 44.3684 270.301 43.9568 269.328 43.5577C268.355 43.1586 267.507 42.5475 266.784 41.7243C266.085 40.9012 265.736 39.8161 265.736 38.4691C265.736 37.3716 266.06 36.3738 266.709 35.4758C267.358 34.5529 268.28 33.8295 269.478 33.3057C270.7 32.7819 272.097 32.52 273.668 32.52C276.013 32.52 277.896 33.1186 279.318 34.3159C280.765 35.4883 281.538 37.0972 281.638 39.1426H277.373C277.298 38.2197 276.924 37.4838 276.25 36.9351C275.577 36.3863 274.666 36.1119 273.519 36.1119C272.396 36.1119 271.536 36.3239 270.937 36.748C270.338 37.172 270.039 37.7333 270.039 38.4317C270.039 38.9805 270.239 39.442 270.638 39.8161C271.037 40.1903 271.523 40.4896 272.097 40.7141C272.671 40.9137 273.519 41.1756 274.641 41.4998C276.138 41.8989 277.36 42.3105 278.308 42.7346C279.281 43.1337 280.116 43.7323 280.815 44.5305C281.513 45.3288 281.875 46.3889 281.9 47.7109C281.9 48.8833 281.576 49.9309 280.927 50.8539C280.279 51.7768 279.356 52.5002 278.158 53.024C276.986 53.5478 275.602 53.8098 274.005 53.8098ZM291.485 36.3364V47.7483C291.485 48.5216 291.66 49.0828 292.009 49.4321C292.383 49.7563 293.007 49.9185 293.88 49.9185H296.499V53.473H293.132C291.211 53.473 289.739 53.024 288.716 52.126C287.694 51.228 287.182 49.7688 287.182 47.7483V36.3364H284.75V32.8567H287.182V27.7307H291.485V32.8567H296.499V36.3364H291.485Z" fill="#FA7275"/>
<rect opacity="0.2" width="74.8323" height="74.8323" rx="37.4161" fill="#FA7275"/>
<rect x="32.739" y="31.1801" width="49.8882" height="49.8882" rx="24.9441" fill="#FA7275"/>
</svg>
